<?xml version="1.0" encoding="UTF-8"?>
<svg id="Calque_2" data-name="Calque 2" xmlns="http://www.w3.org/2000/svg" viewBox="0 0 70.34 70.34">
  <defs>
    <style>
      .cls-1 {
        fill: #383837;
        stroke-width: 0px;
      }

      .cls-2 {
        stroke-width: 1.6px;
      }

      .cls-2, .cls-3, .cls-4 {
        fill: none;
        stroke: #383837;
        stroke-miterlimit: 10;
      }

      .cls-3 {
        stroke-width: .8px;
      }

      .cls-4 {
        stroke-width: .67px;
      }
    </style>
  </defs>
  <g id="Calque_1-2" data-name="Calque 1">
    <g>
      <circle class="cls-2" cx="34.99" cy="35.17" r="24.18"/>
      <circle class="cls-4" cx="34.99" cy="35.17" r="21.22"/>
      <circle class="cls-3" cx="34.99" cy="35.17" r="2.42"/>
      <polygon class="cls-1" points="34.9 50.57 34.21 37.59 35.77 37.59 35.09 50.57 34.9 50.57 34.9 50.57"/>
      <polygon class="cls-1" points="35.09 19.77 35.77 32.74 34.21 32.74 34.9 19.77 35.09 19.77 35.09 19.77"/>
      <polygon class="cls-1" points="19.59 35.08 32.57 34.39 32.57 35.95 19.59 35.26 19.59 35.08 19.59 35.08"/>
      <polygon class="cls-1" points="50.39 35.26 37.42 35.95 37.42 34.39 50.39 35.08 50.39 35.26 50.39 35.26"/>
      <polygon class="cls-1" points="37.06 36.53 41.29 41.32 36.49 37.09 37.06 36.53 37.06 36.53"/>
      <polygon class="cls-1" points="32.89 33.49 28.66 28.69 33.46 32.93 32.89 33.49 32.89 33.49"/>
      <polygon class="cls-1" points="36.57 33.27 41.37 29.04 37.13 33.83 36.57 33.27 36.57 33.27"/>
      <polygon class="cls-1" points="33.53 37.43 28.74 41.67 32.97 36.87 33.53 37.43 33.53 37.43"/>
      <path class="cls-1" d="M34.35,9.53l-.48-8.82.04-.05c.63-.86,1.91-.88,2.57-.04h0s-.49,8.91-.49,8.91h-1.64Z"/>
      <path class="cls-1" d="M34.35,60.81l-.48,8.82.04.05c.63.86,1.91.88,2.57.04h0s-.49-8.91-.49-8.91h-1.64Z"/>
      <path class="cls-1" d="M60.81,34.53l8.82-.48.05.04c.86.63.88,1.91.04,2.57h0s-8.91-.49-8.91-.49v-1.64Z"/>
      <path class="cls-1" d="M9.53,34.53l-8.82-.48-.05.04c-.86.63-.88,1.91-.04,2.57h0s8.91-.49,8.91-.49v-1.64Z"/>
      <path class="cls-1" d="M52.55,16.24l5.91-6.56h.07c1.05-.17,1.97.72,1.84,1.78h0s-6.66,5.94-6.66,5.94l-1.16-1.16Z"/>
      <path class="cls-1" d="M16.22,52.43l-6.59,5.89v.07c-.17,1.05.72,1.97,1.77,1.85h0s5.97-6.64,5.97-6.64l-1.16-1.16Z"/>
      <path class="cls-1" d="M53.64,52.56l6.58,5.89v.07c.17,1.05-.72,1.97-1.78,1.85h0s-5.96-6.64-5.96-6.64l1.16-1.16Z"/>
      <path class="cls-1" d="M17.33,16.34l-5.91-6.57h-.07c-1.05-.17-1.97.72-1.84,1.78h0s6.66,5.95,6.66,5.95l1.16-1.16Z"/>
      <circle class="cls-1" cx="35.05" cy="53.11" r="1.18"/>
      <circle class="cls-1" cx="35.05" cy="16.84" r="1.18"/>
      <circle class="cls-1" cx="53.12" cy="35.17" r="1.18"/>
      <circle class="cls-1" cx="16.78" cy="35.17" r="1.18"/>
    </g>
  </g>
</svg>