<?xml version="1.0" encoding="UTF-8"?>
<svg id="Calque_2" data-name="Calque 2" xmlns="http://www.w3.org/2000/svg" viewBox="0 0 92.89 46.98">
  <defs>
    <style>
      .cls-1 {
        stroke-width: 1.07px;
      }

      .cls-1, .cls-2, .cls-3 {
        fill: none;
        stroke: #383837;
        stroke-miterlimit: 10;
      }

      .cls-2 {
        stroke-width: .53px;
      }

      .cls-4 {
        fill: #383837;
        stroke-width: 0px;
      }

      .cls-3 {
        stroke-width: .45px;
      }
    </style>
  </defs>
  <g id="Calque_1-2" data-name="Calque 1">
    <g>
      <g>
        <path class="cls-4" d="M5.98,36.9c-.84.66-2.2,1.06-3.39,1.06-.84,0-2.02-.13-2.6-.4l.04-.48c4.05-1.23,4.05-2.77,4.05-12.45v-4.09C4.09,10.86,4.09,9.28.04,8.04l-.04-.48c.57-.26,1.76-.4,2.6-.4,1.19,0,2.55.4,3.39,1.06.88-.66,2.24-1.06,3.43-1.06.75,0,1.98.13,2.6.4l-.09.48c-4.05,1.23-4.05,2.82-4.05,12.49v4.09c0,9.68,0,11.22,4.05,12.45l.09.48c-.62.26-1.85.4-2.6.4-1.19,0-2.55-.4-3.43-1.06Z"/>
        <path class="cls-4" d="M16.1,22.69c0-9.46,5.59-16.23,16.1-16.23,5.98,0,8.67,1.89,9.72,2.86,1.1-.09,2.51-.79,2.9-1.41l.48.09c.13.13.18.4.18.66,0,1.01-.7,2.11-1.58,2.99.22.84.4,1.76.4,2.64,0,1.14-.26,2.33-1.01,3.48l-.4-.13c-.31-5.94-4.4-8.89-10.51-8.89-7.79,0-12.01,5.23-12.01,14.03,0,7.21,3.12,13.64,11.48,13.64,6.2,0,10.82-2.51,11.31-7.52l.44-.18c.7,1.23.92,2.42.92,3.48s-.09,1.85-.31,2.64c.84.88,1.54,1.98,1.54,2.99,0,.26-.04.53-.18.66l-.44.09c-.35-.79-1.98-1.67-3.08-1.8-1.45.79-5.94,1.94-10.21,1.94-10.87,0-15.75-7.17-15.75-16.01Z"/>
      </g>
      <g>
        <circle class="cls-1" cx="69.28" cy="23.49" r="16.15"/>
        <circle class="cls-3" cx="69.28" cy="23.49" r="14.17"/>
        <circle class="cls-2" cx="69.28" cy="23.49" r="1.62"/>
        <polygon class="cls-4" points="69.22 33.78 68.76 25.11 69.8 25.11 69.34 33.78 69.22 33.78 69.22 33.78"/>
        <polygon class="cls-4" points="69.34 13.2 69.8 21.87 68.76 21.87 69.22 13.2 69.34 13.2 69.34 13.2"/>
        <polygon class="cls-4" points="58.99 23.43 67.66 22.97 67.66 24.01 58.99 23.55 58.99 23.43 58.99 23.43"/>
        <polygon class="cls-4" points="79.57 23.55 70.9 24.01 70.9 22.97 79.57 23.43 79.57 23.55 79.57 23.55"/>
        <polygon class="cls-4" points="70.66 24.4 73.49 27.6 70.28 24.77 70.66 24.4 70.66 24.4"/>
        <polygon class="cls-4" points="67.88 22.37 65.05 19.16 68.26 21.99 67.88 22.37 67.88 22.37"/>
        <polygon class="cls-4" points="70.33 22.22 73.54 19.39 70.71 22.6 70.33 22.22 70.33 22.22"/>
        <polygon class="cls-4" points="68.31 25 65.1 27.83 67.93 24.62 68.31 25 68.31 25"/>
        <path class="cls-4" d="M68.85,6.37l-.32-5.89.03-.04c.42-.57,1.27-.59,1.71-.03h0s-.33,5.95-.33,5.95h-1.09Z"/>
        <path class="cls-4" d="M68.85,40.61l-.32,5.89.03.04c.42.57,1.27.59,1.71.03h0s-.33-5.95-.33-5.95h-1.09Z"/>
        <path class="cls-4" d="M86.52,23.06l5.89-.32.04.03c.57.42.59,1.27.03,1.71h0s-5.95-.33-5.95-.33v-1.09Z"/>
        <path class="cls-4" d="M52.28,23.06l-5.89-.32-.04.03c-.57.42-.59,1.27-.03,1.71h0s5.95-.33,5.95-.33v-1.09Z"/>
        <path class="cls-4" d="M81.01,10.85l3.95-4.38h.04c.7-.11,1.31.48,1.23,1.19h0s-4.45,3.97-4.45,3.97l-.77-.77Z"/>
        <path class="cls-4" d="M56.74,35.02l-4.4,3.93v.04c-.11.7.48,1.32,1.19,1.23h0s3.99-4.43,3.99-4.43l-.77-.77Z"/>
        <path class="cls-4" d="M81.73,35.1l4.4,3.93v.04c.11.7-.48,1.32-1.19,1.23h0s-3.98-4.44-3.98-4.44l.77-.77Z"/>
        <path class="cls-4" d="M57.48,10.92l-3.95-4.39h-.04c-.7-.11-1.31.48-1.23,1.19h0s4.45,3.97,4.45,3.97l.77-.77Z"/>
        <circle class="cls-4" cx="69.32" cy="35.47" r=".79"/>
        <circle class="cls-4" cx="69.32" cy="11.25" r=".79"/>
        <circle class="cls-4" cx="81.39" cy="23.49" r=".79"/>
        <circle class="cls-4" cx="57.11" cy="23.49" r=".79"/>
      </g>
    </g>
  </g>
</svg>